solid nextion case3
facet normal -1.1933926548532552e-12 -0.8320502943387621 -0.5547001962238518
  outer loop
    vertex 4692.874280135422 3737.1338466831353 4.574942711486709
    vertex 4678.874280135424 3734.912948772088 7.906289578139613
    vertex 4678.874280135426 3737.1338466832262 4.57494271143319
  endloop
endfacet
facet normal -1.1933926548532552e-12 -0.8320502943387621 -0.5547001962238518
  outer loop
    vertex 4678.874280135424 3734.912948772088 7.906289578139613
    vertex 4692.874280135422 3737.1338466831353 4.574942711486709
    vertex 4692.874280135429 3734.912948772088 7.906289578132492
  endloop
endfacet
facet normal 0.00039530422879681143 -0.0006668916692446153 -0.999999699494989
  outer loop
    vertex 4692.8742801354265 3737.0526282846263 0.4948169755895898
    vertex 4678.874280135431 3729.0563015117937 0.49481697546338077
    vertex 4678.874280135425 3737.0526282846263 0.49481697558917526
  endloop
endfacet
facet normal 0.00039530422879681143 -0.0006668916692446153 -0.999999699494989
  outer loop
    vertex 4678.874280135431 3729.0563015117937 0.49481697546338077
    vertex 4692.8742801354265 3737.0526282846263 0.4948169755895898
    vertex 4692.874280135429 3729.0563015117405 0.4948169755888214
  endloop
endfacet
facet normal 9.264581532102848e-14 0.8320502943376064 0.5547001962255852
  outer loop
    vertex 4678.874280135424 3736.5770493607633 9.015689970589653
    vertex 4692.8742801354265 3739.371998210176 4.823266696471486
    vertex 4678.874280135425 3739.371998210176 4.8232666964710615
  endloop
endfacet
facet normal 9.264581532102848e-14 0.8320502943376064 0.5547001962255852
  outer loop
    vertex 4692.8742801354265 3739.371998210176 4.823266696471486
    vertex 4678.874280135424 3736.5770493607633 9.015689970589653
    vertex 4692.874280135429 3736.5770493607633 9.015689970582534
  endloop
endfacet
facet normal 1.674724252384303e-13 0.7525290842824895 0.6585590158132815
  outer loop
    vertex 4678.874280135424 3736.5770493607633 9.015689970589653
    vertex 4692.874280135429 3736.4051309593924 9.212139482396642
    vertex 4692.874280135429 3736.5770493607633 9.015689970582534
  endloop
endfacet
facet normal 1.674724252384303e-13 0.7525290842824895 0.6585590158132815
  outer loop
    vertex 4692.874280135429 3736.4051309593924 9.212139482396642
    vertex 4678.874280135424 3736.5770493607633 9.015689970589653
    vertex 4678.874280135433 3736.4051309593924 9.212139482396642
  endloop
endfacet
facet normal 0.0 0.5564396619343625 0.8308880205096068
  outer loop
    vertex 4692.874280135429 3736.188225660436 9.35739938294143
    vertex 4678.874280135433 3736.4051309593924 9.212139482396642
    vertex 4678.874280135433 3736.188225660436 9.35739938294143
  endloop
endfacet
facet normal 0.0 0.5564396619343625 0.8308880205096068
  outer loop
    vertex 4678.874280135433 3736.4051309593924 9.212139482396642
    vertex 4692.874280135429 3736.188225660436 9.35739938294143
    vertex 4692.874280135429 3736.4051309593924 9.212139482396642
  endloop
endfacet
facet normal 0.0 0.32242979617788087 0.9465933797236754
  outer loop
    vertex 4692.874280135429 3735.941115201564 9.441570450048147
    vertex 4678.874280135433 3736.188225660436 9.35739938294143
    vertex 4678.874280135433 3735.941115201564 9.441570450048147
  endloop
endfacet
facet normal 0.0 0.32242979617788087 0.9465933797236754
  outer loop
    vertex 4678.874280135433 3736.188225660436 9.35739938294143
    vertex 4692.874280135429 3735.941115201564 9.441570450048147
    vertex 4692.874280135429 3736.188225660436 9.35739938294143
  endloop
endfacet
facet normal 0.0 0.06644687265265573 0.9977899644287277
  outer loop
    vertex 4692.874280135429 3735.680639752179 9.45891656459273
    vertex 4678.874280135433 3735.941115201564 9.441570450048147
    vertex 4678.874280135433 3735.680639752179 9.45891656459273
  endloop
endfacet
facet normal 0.0 0.06644687265265573 0.9977899644287277
  outer loop
    vertex 4678.874280135433 3735.941115201564 9.441570450048147
    vertex 4692.874280135429 3735.680639752179 9.45891656459273
    vertex 4692.874280135429 3735.941115201564 9.441570450048147
  endloop
endfacet
facet normal 0.0 -0.19406429543494388 0.9809888119837754
  outer loop
    vertex 4692.874280135429 3735.4245502837016 9.408255617534781
    vertex 4678.874280135433 3735.680639752179 9.45891656459273
    vertex 4678.874280135433 3735.4245502837016 9.408255617534781
  endloop
endfacet
facet normal 0.0 -0.19406429543494388 0.9809888119837754
  outer loop
    vertex 4678.874280135433 3735.680639752179 9.45891656459273
    vertex 4692.874280135429 3735.4245502837016 9.408255617534781
    vertex 4692.874280135429 3735.680639752179 9.45891656459273
  endloop
endfacet
facet normal 0.0 -0.44135030249547047 0.8973348931626124
  outer loop
    vertex 4692.874280135429 3735.190298870201 9.29304006869512
    vertex 4678.874280135433 3735.4245502837016 9.408255617534781
    vertex 4678.874280135433 3735.190298870201 9.29304006869512
  endloop
endfacet
facet normal 0.0 -0.44135030249547047 0.8973348931626124
  outer loop
    vertex 4678.874280135433 3735.4245502837016 9.408255617534781
    vertex 4692.874280135429 3735.190298870201 9.29304006869512
    vertex 4692.874280135429 3735.4245502837016 9.408255617534781
  endloop
endfacet
facet normal 0.0 -0.6585590158058391 0.7525290842890026
  outer loop
    vertex 4692.874280135429 3734.9938493583863 9.121121667324479
    vertex 4678.874280135433 3735.190298870201 9.29304006869512
    vertex 4678.874280135433 3734.9938493583863 9.121121667324479
  endloop
endfacet
facet normal 0.0 -0.6585590158058391 0.7525290842890026
  outer loop
    vertex 4678.874280135433 3735.190298870201 9.29304006869512
    vertex 4692.874280135429 3734.9938493583863 9.121121667324479
    vertex 4692.874280135429 3735.190298870201 9.29304006869512
  endloop
endfacet
facet normal 0.0 -0.830888020509592 0.5564396619343842
  outer loop
    vertex 4692.874280135429 3734.9938493583863 9.121121667324479
    vertex 4678.874280135433 3734.8485894578416 8.904216368367672
    vertex 4692.874280135429 3734.8485894578416 8.904216368367672
  endloop
endfacet
facet normal 0.0 -0.830888020509592 0.5564396619343842
  outer loop
    vertex 4678.874280135433 3734.8485894578416 8.904216368367672
    vertex 4692.874280135429 3734.9938493583863 9.121121667324479
    vertex 4678.874280135433 3734.9938493583863 9.121121667324479
  endloop
endfacet
facet normal 0.0 -0.9465933797241274 0.3224297961765537
  outer loop
    vertex 4692.874280135429 3734.8485894578416 8.904216368367672
    vertex 4678.874280135433 3734.764418390735 8.657105909495652
    vertex 4692.874280135429 3734.764418390735 8.657105909495652
  endloop
endfacet
facet normal 0.0 -0.9465933797241274 0.3224297961765537
  outer loop
    vertex 4678.874280135433 3734.764418390735 8.657105909495652
    vertex 4692.874280135429 3734.8485894578416 8.904216368367672
    vertex 4678.874280135433 3734.8485894578416 8.904216368367672
  endloop
endfacet
facet normal 0.0 -0.9977899644286934 0.06644687265317076
  outer loop
    vertex 4692.874280135429 3734.764418390735 8.657105909495652
    vertex 4678.874280135433 3734.7470722761905 8.396630460111203
    vertex 4692.874280135429 3734.7470722761905 8.396630460111203
  endloop
endfacet
facet normal 0.0 -0.9977899644286934 0.06644687265317076
  outer loop
    vertex 4678.874280135433 3734.7470722761905 8.396630460111203
    vertex 4692.874280135429 3734.764418390735 8.657105909495652
    vertex 4678.874280135433 3734.764418390735 8.657105909495652
  endloop
endfacet
facet normal -0.0 -0.9809888119839394 -0.19406429543411505
  outer loop
    vertex 4692.874280135429 3734.7470722761905 8.396630460111203
    vertex 4678.874280135433 3734.797733223248 8.140540991633847
    vertex 4692.874280135429 3734.797733223248 8.140540991633847
  endloop
endfacet
facet normal -0.0 -0.9809888119839394 -0.19406429543411505
  outer loop
    vertex 4678.874280135433 3734.797733223248 8.140540991633847
    vertex 4692.874280135429 3734.7470722761905 8.396630460111203
    vertex 4678.874280135433 3734.7470722761905 8.396630460111203
  endloop
endfacet
facet normal -1.1223588455095865e-13 -0.897334893159971 -0.44135030250084073
  outer loop
    vertex 4692.874280135429 3734.797733223248 8.140540991633847
    vertex 4678.874280135424 3734.912948772088 7.906289578139613
    vertex 4692.874280135429 3734.912948772088 7.906289578132492
  endloop
endfacet
facet normal -1.1223588455095865e-13 -0.897334893159971 -0.44135030250084073
  outer loop
    vertex 4678.874280135424 3734.912948772088 7.906289578139613
    vertex 4692.874280135429 3734.797733223248 8.140540991633847
    vertex 4678.874280135433 3734.797733223248 8.140540991633847
  endloop
endfacet
facet normal -1.0 -3.3604641219443604e-13 6.357514556436003e-13
  outer loop
    vertex 4678.874280135433 3734.764418390735 8.657105909495652
    vertex 4678.874280135433 3734.797733223248 8.140540991633847
    vertex 4678.874280135433 3734.7470722761905 8.396630460111203
  endloop
endfacet
facet normal -1.0 -3.3604641219443604e-13 6.357514556436003e-13
  outer loop
    vertex 4678.874280135433 3734.797733223248 8.140540991633847
    vertex 4678.874280135433 3734.764418390735 8.657105909495652
    vertex 4678.874280135433 3734.8485894578416 8.904216368367672
  endloop
endfacet
facet normal -1.0 -3.3604641219443604e-13 6.357514556436003e-13
  outer loop
    vertex 4678.874280135433 3734.797733223248 8.140540991633847
    vertex 4678.874280135433 3734.8485894578416 8.904216368367672
    vertex 4678.874280135424 3734.912948772088 7.906289578139613
  endloop
endfacet
facet normal -1.0 -3.3604641219443604e-13 6.357514556436003e-13
  outer loop
    vertex 4678.874280135424 3734.912948772088 7.906289578139613
    vertex 4678.874280135433 3734.8485894578416 8.904216368367672
    vertex 4678.874280135433 3734.9938493583863 9.121121667324479
  endloop
endfacet
facet normal -1.0 -3.3604641219443604e-13 6.357514556436003e-13
  outer loop
    vertex 4678.874280135424 3734.912948772088 7.906289578139613
    vertex 4678.874280135433 3734.9938493583863 9.121121667324479
    vertex 4678.874280135426 3737.1338466832262 4.57494271143319
  endloop
endfacet
facet normal -1.0 -3.3604641219443604e-13 6.357514556436003e-13
  outer loop
    vertex 4678.874280135426 3737.1338466832262 4.57494271143319
    vertex 4678.874280135433 3734.9938493583863 9.121121667324479
    vertex 4678.874280135433 3735.190298870201 9.29304006869512
  endloop
endfacet
facet normal -1.0 -3.3604641219443604e-13 6.357514556436003e-13
  outer loop
    vertex 4678.874280135426 3737.1338466832262 4.57494271143319
    vertex 4678.874280135433 3735.190298870201 9.29304006869512
    vertex 4678.874280135433 3735.4245502837016 9.408255617534781
  endloop
endfacet
facet normal -1.0 -3.3604641219443604e-13 6.357514556436003e-13
  outer loop
    vertex 4678.874280135426 3737.1338466832262 4.57494271143319
    vertex 4678.874280135433 3735.4245502837016 9.408255617534781
    vertex 4678.874280135433 3735.680639752179 9.45891656459273
  endloop
endfacet
facet normal -1.0 -3.3604641219443604e-13 6.357514556436003e-13
  outer loop
    vertex 4678.874280135426 3737.1338466832262 4.57494271143319
    vertex 4678.874280135433 3735.680639752179 9.45891656459273
    vertex 4678.874280135433 3735.941115201564 9.441570450048147
  endloop
endfacet
facet normal -1.0 -3.3604641219443604e-13 6.357514556436003e-13
  outer loop
    vertex 4678.874280135426 3737.1338466832262 4.57494271143319
    vertex 4678.874280135433 3735.941115201564 9.441570450048147
    vertex 4678.874280135433 3736.188225660436 9.35739938294143
  endloop
endfacet
facet normal -1.0 -3.3604641219443604e-13 6.357514556436003e-13
  outer loop
    vertex 4678.874280135426 3737.1338466832262 4.57494271143319
    vertex 4678.874280135433 3736.188225660436 9.35739938294143
    vertex 4678.874280135433 3736.4051309593924 9.212139482396642
  endloop
endfacet
facet normal -1.0 -3.3604641219443604e-13 6.357514556436003e-13
  outer loop
    vertex 4678.874280135426 3737.1338466832262 4.57494271143319
    vertex 4678.874280135433 3736.4051309593924 9.212139482396642
    vertex 4678.874280135424 3736.5770493607633 9.015689970589653
  endloop
endfacet
facet normal -1.0 -3.3604641219443604e-13 6.357514556436003e-13
  outer loop
    vertex 4678.874280135426 3737.1338466832262 4.57494271143319
    vertex 4678.874280135424 3736.5770493607633 9.015689970589653
    vertex 4678.874280135425 3739.371998210176 4.8232666964710615
  endloop
endfacet
facet normal -1.0 -3.3604641219443604e-13 6.357514556436003e-13
  outer loop
    vertex 4678.874280135426 3737.1338466832262 4.57494271143319
    vertex 4678.874280135425 3739.371998210176 4.8232666964710615
    vertex 4678.874280135426 3737.6720690363654 3.3433451130125613
  endloop
endfacet
facet normal -1.0 -3.3604641219443604e-13 6.357514556436003e-13
  outer loop
    vertex 4678.874280135426 3737.1338466832262 4.57494271143319
    vertex 4678.874280135426 3737.6720690363654 3.3433451130125613
    vertex 4678.874280135426 3737.4813666892483 3.0948169755887043
  endloop
endfacet
facet normal -1.0 -3.3604641219443604e-13 6.357514556436003e-13
  outer loop
    vertex 4678.874280135426 3737.1338466832262 4.57494271143319
    vertex 4678.874280135426 3737.4813666892483 3.0948169755887043
    vertex 4678.874280135426 3737.3614861822425 2.8053998297117295
  endloop
endfacet
facet normal -1.0 -3.3604641219443604e-13 6.357514556436003e-13
  outer loop
    vertex 4678.874280135426 3737.1338466832262 4.57494271143319
    vertex 4678.874280135426 3737.3614861822425 2.8053998297117295
    vertex 4678.874280135426 3737.3205971737893 2.494816975588704
  endloop
endfacet
facet normal -1.0 -3.3604641219443604e-13 6.357514556436003e-13
  outer loop
    vertex 4678.874280135426 3737.6720690363654 3.3433451130125613
    vertex 4678.874280135425 3739.371998210176 4.8232666964710615
    vertex 4678.874280135426 3737.9205971737892 3.5340474601300302
  endloop
endfacet
facet normal -1.0 -3.3604641219443604e-13 6.357514556436003e-13
  outer loop
    vertex 4678.874280135426 3737.9205971737892 3.5340474601300302
    vertex 4678.874280135425 3739.371998210176 4.8232666964710615
    vertex 4678.874280135426 3738.2100143196667 3.653927967135586
  endloop
endfacet
facet normal -1.0 -3.3604641219443604e-13 6.357514556436003e-13
  outer loop
    vertex 4678.874280135426 3738.2100143196667 3.653927967135586
    vertex 4678.874280135425 3739.371998210176 4.8232666964710615
    vertex 4678.874280135426 3738.520597173789 3.694816975588704
  endloop
endfacet
facet normal -1.0 -3.3604641219443604e-13 6.357514556436003e-13
  outer loop
    vertex 4678.874280135426 3738.520597173789 3.694816975588704
    vertex 4678.874280135425 3739.371998210176 4.8232666964710615
    vertex 4678.874280135426 3738.831180027912 3.6539279671355853
  endloop
endfacet
facet normal -1.0 -3.3604641219443604e-13 6.357514556436003e-13
  outer loop
    vertex 4678.874280135426 3738.831180027912 3.6539279671355853
    vertex 4678.874280135425 3739.371998210176 4.8232666964710615
    vertex 4678.874280135426 3739.120597173789 3.5340474601300302
  endloop
endfacet
facet normal -1.0 -3.3604641219443604e-13 6.357514556436003e-13
  outer loop
    vertex 4678.874280135426 3739.120597173789 3.5340474601300302
    vertex 4678.874280135425 3739.371998210176 4.8232666964710615
    vertex 4678.874280135426 3739.369125311213 3.343345113012561
  endloop
endfacet
facet normal -1.0 -3.3604641219443604e-13 6.357514556436003e-13
  outer loop
    vertex 4678.874280135426 3739.369125311213 3.343345113012561
    vertex 4678.874280135425 3739.371998210176 4.8232666964710615
    vertex 4678.874280135426 3739.5598276583305 3.094816975588703
  endloop
endfacet
facet normal -1.0 -3.3604641219443604e-13 6.357514556436003e-13
  outer loop
    vertex 4678.874280135426 3739.5598276583305 3.094816975588703
    vertex 4678.874280135425 3739.371998210176 4.8232666964710615
    vertex 4678.874280135426 3739.6286636588147 4.735840997049176
  endloop
endfacet
facet normal -1.0 -3.3604641219443604e-13 6.357514556436003e-13
  outer loop
    vertex 4678.874280135426 3739.5598276583305 3.094816975588703
    vertex 4678.874280135426 3739.6286636588147 4.735840997049176
    vertex 4678.874280135426 3739.679708165336 2.8053998297117286
  endloop
endfacet
facet normal -1.0 -3.3604641219443604e-13 6.357514556436003e-13
  outer loop
    vertex 4678.874280135426 3739.679708165336 2.8053998297117286
    vertex 4678.874280135426 3739.6286636588147 4.735840997049176
    vertex 4678.874280135426 3740.1709269062067 4.372691245687144
  endloop
endfacet
facet normal -1.0 -3.3604641219443604e-13 6.357514556436003e-13
  outer loop
    vertex 4678.874280135426 3739.679708165336 2.8053998297117286
    vertex 4678.874280135426 3740.1709269062067 4.372691245687144
    vertex 4678.874280135425 3739.720597173789 2.494816975588704
  endloop
endfacet
facet normal -1.0 -3.3604641219443604e-13 6.357514556436003e-13
  outer loop
    vertex 4678.874280135425 3739.720597173789 2.494816975588704
    vertex 4678.874280135426 3740.1709269062067 4.372691245687144
    vertex 4678.874280135426 3739.9073476643525 0.4146912397442187
  endloop
endfacet
facet normal -1.0 -3.3604641219443604e-13 6.357514556436003e-13
  outer loop
    vertex 4678.874280135426 3739.9073476643525 0.4146912397442187
    vertex 4678.874280135426 3740.1709269062067 4.372691245687144
    vertex 4678.874280135426 3740.398471443888 0.844487243170973
  endloop
endfacet
facet normal -1.0 -3.3604641219443604e-13 6.357514556436003e-13
  outer loop
    vertex 4678.874280135426 3740.398471443888 0.844487243170973
    vertex 4678.874280135426 3740.1709269062067 4.372691245687144
    vertex 4678.874280135426 3740.6007229096335 3.881567466151866
  endloop
endfacet
facet normal -1.0 -3.3604641219443604e-13 6.357514556436003e-13
  outer loop
    vertex 4678.874280135426 3740.398471443888 0.844487243170973
    vertex 4678.874280135426 3740.6007229096335 3.881567466151866
    vertex 4678.874280135426 3740.7616211952495 1.3867504905631618
  endloop
endfacet
facet normal -1.0 -3.3604641219443604e-13 6.357514556436003e-13
  outer loop
    vertex 4678.874280135426 3740.7616211952495 1.3867504905631618
    vertex 4678.874280135426 3740.6007229096335 3.881567466151866
    vertex 4678.874280135426 3740.8887617817327 3.295938932398247
  endloop
endfacet
facet normal -1.0 -3.3604641219443604e-13 6.357514556436003e-13
  outer loop
    vertex 4678.874280135426 3740.7616211952495 1.3867504905631618
    vertex 4678.874280135426 3740.8887617817327 3.295938932398247
    vertex 4678.874280135426 3740.9720488630164 2.004526637743394
  endloop
endfacet
facet normal -1.0 -3.3604641219443604e-13 6.357514556436003e-13
  outer loop
    vertex 4678.874280135426 3740.9720488630164 2.004526637743394
    vertex 4678.874280135426 3740.8887617817327 3.295938932398247
    vertex 4678.874280135426 3741.015414149378 2.6557152612046915
  endloop
endfacet
facet normal -1.0 -3.3604641219443604e-13 6.357514556436003e-13
  outer loop
    vertex 4678.874280135427 3736.0364950663347 2.494816975588704
    vertex 4678.874280135426 3736.1524325658456 1.69369501877916
    vertex 4678.874280135426 3736.0257801982 2.333918689972716
  endloop
endfacet
facet normal -1.0 -3.3604641219443604e-13 6.357514556436003e-13
  outer loop
    vertex 4678.874280135426 3736.1524325658456 1.69369501877916
    vertex 4678.874280135427 3736.0364950663347 2.494816975588704
    vertex 4678.874280135426 3736.069145484562 2.985107313434013
  endloop
endfacet
facet normal -1.0 -3.3604641219443604e-13 6.357514556436003e-13
  outer loop
    vertex 4678.874280135426 3736.1524325658456 1.69369501877916
    vertex 4678.874280135426 3736.069145484562 2.985107313434013
    vertex 4678.874280135426 3736.279573152329 3.6028834606142466
  endloop
endfacet
facet normal -1.0 -3.3604641219443604e-13 6.357514556436003e-13
  outer loop
    vertex 4678.874280135426 3736.1524325658456 1.69369501877916
    vertex 4678.874280135426 3736.279573152329 3.6028834606142466
    vertex 4678.874280135426 3736.440471437945 1.1080664850255422
  endloop
endfacet
facet normal -1.0 -3.3604641219443604e-13 6.357514556436003e-13
  outer loop
    vertex 4678.874280135426 3736.440471437945 1.1080664850255422
    vertex 4678.874280135426 3736.279573152329 3.6028834606142466
    vertex 4678.874280135426 3736.642722903691 4.145146708006435
  endloop
endfacet
facet normal -1.0 -3.3604641219443604e-13 6.357514556436003e-13
  outer loop
    vertex 4678.874280135426 3736.440471437945 1.1080664850255422
    vertex 4678.874280135426 3736.642722903691 4.145146708006435
    vertex 4678.874280135426 3736.8702674413717 0.6169427054902629
  endloop
endfacet
facet normal -1.0 -3.3604641219443604e-13 6.357514556436003e-13
  outer loop
    vertex 4678.874280135426 3736.8702674413717 0.6169427054902629
    vertex 4678.874280135426 3736.642722903691 4.145146708006435
    vertex 4678.874280135426 3737.1338466832262 4.57494271143319
  endloop
endfacet
facet normal -1.0 -3.3604641219443604e-13 6.357514556436003e-13
  outer loop
    vertex 4678.874280135426 3736.8702674413717 0.6169427054902629
    vertex 4678.874280135426 3737.1338466832262 4.57494271143319
    vertex 4678.874280135425 3737.0526282846263 0.49481697558917526
  endloop
endfacet
facet normal -1.0 -3.3604641219443604e-13 6.357514556436003e-13
  outer loop
    vertex 4678.874280135425 3737.0526282846263 0.49481697558917526
    vertex 4678.874280135426 3737.1338466832262 4.57494271143319
    vertex 4678.874280135426 3737.4125306887636 0.2537929541282306
  endloop
endfacet
facet normal -1.0 -3.3604641219443604e-13 6.357514556436003e-13
  outer loop
    vertex 4678.874280135426 3737.4125306887636 0.2537929541282306
    vertex 4678.874280135426 3737.1338466832262 4.57494271143319
    vertex 4678.874280135426 3737.3205971737893 2.494816975588704
  endloop
endfacet
facet normal -1.0 -3.3604641219443604e-13 6.357514556436003e-13
  outer loop
    vertex 4678.874280135426 3737.4125306887636 0.2537929541282306
    vertex 4678.874280135426 3737.3205971737893 2.494816975588704
    vertex 4678.874280135426 3737.3614861822425 2.1842341214656797
  endloop
endfacet
facet normal -1.0 -3.3604641219443604e-13 6.357514556436003e-13
  outer loop
    vertex 4678.874280135426 3737.4125306887636 0.2537929541282306
    vertex 4678.874280135426 3737.3614861822425 2.1842341214656797
    vertex 4678.874280135426 3737.4813666892483 1.8948169755887045
  endloop
endfacet
facet normal -1.0 -3.3604641219443604e-13 6.357514556436003e-13
  outer loop
    vertex 4678.874280135426 3737.4125306887636 0.2537929541282306
    vertex 4678.874280135426 3737.4813666892483 1.8948169755887045
    vertex 4678.874280135426 3738.0303068359435 0.04336528636142801
  endloop
endfacet
facet normal -1.0 -3.3604641219443604e-13 6.357514556436003e-13
  outer loop
    vertex 4678.874280135426 3738.0303068359435 0.04336528636142801
    vertex 4678.874280135426 3737.4813666892483 1.8948169755887045
    vertex 4678.874280135426 3737.6720690363654 1.6462888381648468
  endloop
endfacet
facet normal -1.0 -3.3604641219443604e-13 6.357514556436003e-13
  outer loop
    vertex 4678.874280135426 3738.0303068359435 0.04336528636142801
    vertex 4678.874280135426 3737.6720690363654 1.6462888381648468
    vertex 4678.874280135425 3737.9205971737892 1.455586491047378
  endloop
endfacet
facet normal -1.0 -3.3604641219443604e-13 6.357514556436003e-13
  outer loop
    vertex 4678.874280135426 3738.0303068359435 0.04336528636142801
    vertex 4678.874280135425 3737.9205971737892 1.455586491047378
    vertex 4678.874280135425 3738.2100143196667 1.3357059840418222
  endloop
endfacet
facet normal -1.0 -3.3604641219443604e-13 6.357514556436003e-13
  outer loop
    vertex 4678.874280135426 3738.0303068359435 0.04336528636142801
    vertex 4678.874280135425 3738.2100143196667 1.3357059840418222
    vertex 4678.874280135426 3738.681495459405 0.0
  endloop
endfacet
facet normal -1.0 -3.3604641219443604e-13 6.357514556436003e-13
  outer loop
    vertex 4678.874280135426 3738.681495459405 0.0
    vertex 4678.874280135425 3738.2100143196667 1.3357059840418222
    vertex 4678.874280135425 3738.520597173789 1.2948169755887042
  endloop
endfacet
facet normal -1.0 -3.3604641219443604e-13 6.357514556436003e-13
  outer loop
    vertex 4678.874280135426 3738.681495459405 0.0
    vertex 4678.874280135425 3738.520597173789 1.2948169755887042
    vertex 4678.874280135425 3738.831180027912 1.3357059840418222
  endloop
endfacet
facet normal -1.0 -3.3604641219443604e-13 6.357514556436003e-13
  outer loop
    vertex 4678.874280135426 3738.681495459405 0.0
    vertex 4678.874280135425 3738.831180027912 1.3357059840418222
    vertex 4678.874280135426 3739.321719130599 0.1266523676449533
  endloop
endfacet
facet normal -1.0 -3.3604641219443604e-13 6.357514556436003e-13
  outer loop
    vertex 4678.874280135426 3739.321719130599 0.1266523676449533
    vertex 4678.874280135425 3738.831180027912 1.3357059840418222
    vertex 4678.874280135425 3739.120597173789 1.4555864910473773
  endloop
endfacet
facet normal -1.0 -3.3604641219443604e-13 6.357514556436003e-13
  outer loop
    vertex 4678.874280135426 3739.321719130599 0.1266523676449533
    vertex 4678.874280135425 3739.120597173789 1.4555864910473773
    vertex 4678.874280135425 3739.369125311213 1.6462888381648468
  endloop
endfacet
facet normal -1.0 -3.3604641219443604e-13 6.357514556436003e-13
  outer loop
    vertex 4678.874280135426 3739.321719130599 0.1266523676449533
    vertex 4678.874280135425 3739.369125311213 1.6462888381648468
    vertex 4678.874280135426 3739.9073476643525 0.4146912397442187
  endloop
endfacet
facet normal -1.0 -3.3604641219443604e-13 6.357514556436003e-13
  outer loop
    vertex 4678.874280135426 3739.9073476643525 0.4146912397442187
    vertex 4678.874280135425 3739.369125311213 1.6462888381648468
    vertex 4678.874280135425 3739.5598276583305 1.8948169755887039
  endloop
endfacet
facet normal -1.0 -3.3604641219443604e-13 6.357514556436003e-13
  outer loop
    vertex 4678.874280135426 3739.9073476643525 0.4146912397442187
    vertex 4678.874280135425 3739.5598276583305 1.8948169755887039
    vertex 4678.874280135425 3739.679708165336 2.184234121465678
  endloop
endfacet
facet normal -1.0 -3.3604641219443604e-13 6.357514556436003e-13
  outer loop
    vertex 4678.874280135426 3739.9073476643525 0.4146912397442187
    vertex 4678.874280135425 3739.679708165336 2.184234121465678
    vertex 4678.874280135425 3739.720597173789 2.494816975588704
  endloop
endfacet
facet normal 2.4602417274493518e-14 -0.5564396619335629 -0.8308880205101422
  outer loop
    vertex 4678.874280135426 3737.4125306887636 0.2537929541282306
    vertex 4692.8742801354265 3737.0526282846263 0.4948169755895898
    vertex 4678.874280135425 3737.0526282846263 0.49481697558917526
  endloop
endfacet
facet normal 2.4602417274493518e-14 -0.5564396619335629 -0.8308880205101422
  outer loop
    vertex 4692.8742801354265 3737.0526282846263 0.4948169755895898
    vertex 4678.874280135426 3737.4125306887636 0.2537929541282306
    vertex 4692.874280135427 3737.4125306887636 0.25379295412864517
  endloop
endfacet
facet normal -2.86954152741216e-14 0.3224297961779461 0.9465933797236532
  outer loop
    vertex 4692.8742801354265 3739.371998210176 4.823266696471486
    vertex 4678.874280135426 3739.6286636588147 4.735840997049176
    vertex 4678.874280135425 3739.371998210176 4.8232666964710615
  endloop
endfacet
facet normal -2.86954152741216e-14 0.3224297961779461 0.9465933797236532
  outer loop
    vertex 4678.874280135426 3739.6286636588147 4.735840997049176
    vertex 4692.8742801354265 3739.371998210176 4.823266696471486
    vertex 4692.874280135427 3739.6286636588147 4.735840997049601
  endloop
endfacet
facet normal 1.0930823155618738e-14 0.5564396619339155 0.830888020509906
  outer loop
    vertex 4692.874280135427 3739.6286636588147 4.735840997049601
    vertex 4678.874280135426 3740.1709269062067 4.372691245687144
    vertex 4678.874280135426 3739.6286636588147 4.735840997049176
  endloop
endfacet
facet normal 1.0930823155618738e-14 0.5564396619339155 0.830888020509906
  outer loop
    vertex 4678.874280135426 3740.1709269062067 4.372691245687144
    vertex 4692.874280135427 3739.6286636588147 4.735840997049601
    vertex 4692.874280135427 3740.1709269062067 4.372691245687569
  endloop
endfacet
facet normal 2.8870406364960796e-14 0.7525290842886817 0.6585590158062058
  outer loop
    vertex 4678.874280135426 3740.1709269062067 4.372691245687144
    vertex 4692.874280135427 3740.6007229096335 3.8815674661522905
    vertex 4678.874280135426 3740.6007229096335 3.881567466151866
  endloop
endfacet
facet normal 2.8870406364960796e-14 0.7525290842886817 0.6585590158062058
  outer loop
    vertex 4692.874280135427 3740.6007229096335 3.8815674661522905
    vertex 4678.874280135426 3740.1709269062067 4.372691245687144
    vertex 4692.874280135427 3740.1709269062067 4.372691245687569
  endloop
endfacet
facet normal 4.4842519091194973e-14 0.8973348931629165 0.4413503024948522
  outer loop
    vertex 4678.874280135426 3740.6007229096335 3.881567466151866
    vertex 4692.874280135427 3740.8887617817327 3.2959389323986716
    vertex 4678.874280135426 3740.8887617817327 3.295938932398247
  endloop
endfacet
facet normal 4.4842519091194973e-14 0.8973348931629165 0.4413503024948522
  outer loop
    vertex 4692.874280135427 3740.8887617817327 3.2959389323986716
    vertex 4678.874280135426 3740.6007229096335 3.881567466151866
    vertex 4692.874280135427 3740.6007229096335 3.8815674661522905
  endloop
endfacet
facet normal 5.775868824705873e-14 0.9809888119836329 0.19406429543566384
  outer loop
    vertex 4678.874280135426 3740.8887617817327 3.295938932398247
    vertex 4692.874280135427 3741.015414149378 2.655715261205116
    vertex 4678.874280135426 3741.015414149378 2.6557152612046915
  endloop
endfacet
facet normal 5.775868824705873e-14 0.9809888119836329 0.19406429543566384
  outer loop
    vertex 4692.874280135427 3741.015414149378 2.655715261205116
    vertex 4678.874280135426 3740.8887617817327 3.295938932398247
    vertex 4692.874280135427 3740.8887617817327 3.2959389323986716
  endloop
endfacet
facet normal 6.673869824971823e-14 0.9977899644286947 -0.06644687265315279
  outer loop
    vertex 4678.874280135426 3741.015414149378 2.6557152612046915
    vertex 4692.874280135427 3740.9720488630164 2.0045266377438185
    vertex 4678.874280135426 3740.9720488630164 2.004526637743394
  endloop
endfacet
facet normal 6.673869824971823e-14 0.9977899644286947 -0.06644687265315279
  outer loop
    vertex 4692.874280135427 3740.9720488630164 2.0045266377438185
    vertex 4678.874280135426 3741.015414149378 2.6557152612046915
    vertex 4692.874280135427 3741.015414149378 2.655715261205116
  endloop
endfacet
facet normal 7.117057625751699e-14 0.9465933797238183 -0.3224297961774615
  outer loop
    vertex 4678.874280135426 3740.9720488630164 2.004526637743394
    vertex 4692.874280135427 3740.7616211952495 1.3867504905635863
    vertex 4678.874280135426 3740.7616211952495 1.3867504905631618
  endloop
endfacet
facet normal 7.117057625751699e-14 0.9465933797238183 -0.3224297961774615
  outer loop
    vertex 4692.874280135427 3740.7616211952495 1.3867504905635863
    vertex 4678.874280135426 3740.9720488630164 2.004526637743394
    vertex 4692.874280135427 3740.9720488630164 2.0045266377438185
  endloop
endfacet
facet normal 7.075229710832154e-14 0.8308880205101847 -0.5564396619334991
  outer loop
    vertex 4678.874280135426 3740.7616211952495 1.3867504905631618
    vertex 4692.874280135427 3740.398471443888 0.8444872431713975
    vertex 4678.874280135426 3740.398471443888 0.844487243170973
  endloop
endfacet
facet normal 7.075229710832154e-14 0.8308880205101847 -0.5564396619334991
  outer loop
    vertex 4692.874280135427 3740.398471443888 0.8444872431713975
    vertex 4678.874280135426 3740.7616211952495 1.3867504905631618
    vertex 4692.874280135427 3740.7616211952495 1.3867504905635863
  endloop
endfacet
facet normal 6.551236583488407e-14 0.6585590158059694 -0.7525290842888887
  outer loop
    vertex 4692.874280135427 3740.398471443888 0.8444872431713975
    vertex 4678.874280135426 3739.9073476643525 0.4146912397442187
    vertex 4678.874280135426 3740.398471443888 0.844487243170973
  endloop
endfacet
facet normal 6.551236583488407e-14 0.6585590158059694 -0.7525290842888887
  outer loop
    vertex 4678.874280135426 3739.9073476643525 0.4146912397442187
    vertex 4692.874280135427 3740.398471443888 0.8444872431713975
    vertex 4692.874280135427 3739.9073476643525 0.4146912397446332
  endloop
endfacet
facet normal 5.5807875094116106e-14 0.44135030249517593 -0.8973348931627573
  outer loop
    vertex 4692.874280135427 3739.9073476643525 0.4146912397446332
    vertex 4678.874280135426 3739.321719130599 0.1266523676449533
    vertex 4678.874280135426 3739.9073476643525 0.4146912397442187
  endloop
endfacet
facet normal 5.5807875094116106e-14 0.44135030249517593 -0.8973348931627573
  outer loop
    vertex 4678.874280135426 3739.321719130599 0.1266523676449533
    vertex 4692.874280135427 3739.9073476643525 0.4146912397446332
    vertex 4692.874280135427 3739.321719130599 0.12665236764536783
  endloop
endfacet
facet normal 4.23001698925478e-14 0.19406429543495815 -0.9809888119837726
  outer loop
    vertex 4692.874280135427 3739.321719130599 0.12665236764536783
    vertex 4678.874280135426 3738.681495459405 0.0
    vertex 4678.874280135426 3739.321719130599 0.1266523676449533
  endloop
endfacet
facet normal 4.23001698925478e-14 0.19406429543495815 -0.9809888119837726
  outer loop
    vertex 4678.874280135426 3738.681495459405 0.0
    vertex 4692.874280135427 3739.321719130599 0.12665236764536783
    vertex 4692.874280135427 3738.681495459405 4.145350729345409e-13
  endloop
endfacet
facet normal 2.590977801714364e-14 -0.06644687265264508 -0.9977899644287286
  outer loop
    vertex 4692.874280135427 3738.681495459405 4.145350729345409e-13
    vertex 4678.874280135426 3738.0303068359435 0.04336528636142801
    vertex 4678.874280135426 3738.681495459405 0.0
  endloop
endfacet
facet normal 2.590977801714364e-14 -0.06644687265264508 -0.9977899644287286
  outer loop
    vertex 4678.874280135426 3738.0303068359435 0.04336528636142801
    vertex 4692.874280135427 3738.681495459405 4.145350729345409e-13
    vertex 4692.874280135427 3738.0303068359435 0.043365286361842545
  endloop
endfacet
facet normal 7.753677587795781e-15 -0.3224297961777334 -0.9465933797237256
  outer loop
    vertex 4692.874280135427 3738.0303068359435 0.043365286361842545
    vertex 4678.874280135426 3737.4125306887636 0.2537929541282306
    vertex 4678.874280135426 3738.0303068359435 0.04336528636142801
  endloop
endfacet
facet normal 7.753677587795781e-15 -0.3224297961777334 -0.9465933797237256
  outer loop
    vertex 4678.874280135426 3737.4125306887636 0.2537929541282306
    vertex 4692.874280135427 3738.0303068359435 0.043365286361842545
    vertex 4692.874280135427 3737.4125306887636 0.25379295412864517
  endloop
endfacet
facet normal -7.15557219113121e-12 -0.6585590158059693 0.7525290842888885
  outer loop
    vertex 4692.874280135422 3736.6427229036 4.145146708059954
    vertex 4678.874280135426 3737.1338466832262 4.57494271143319
    vertex 4678.874280135426 3736.642722903691 4.145146708006435
  endloop
endfacet
facet normal -7.15557219113121e-12 -0.6585590158059693 0.7525290842888885
  outer loop
    vertex 4678.874280135426 3737.1338466832262 4.57494271143319
    vertex 4692.874280135422 3736.6427229036 4.145146708059954
    vertex 4692.874280135422 3737.1338466831353 4.574942711486709
  endloop
endfacet
facet normal -6.736834464771391e-12 -0.9977899644287236 0.06644687265271872
  outer loop
    vertex 4692.874280135425 3736.036495066244 2.4948169756422187
    vertex 4678.874280135426 3736.069145484562 2.985107313434013
    vertex 4678.874280135427 3736.0364950663347 2.494816975588704
  endloop
endfacet
facet normal -6.736834464771391e-12 -0.9977899644287236 0.06644687265271872
  outer loop
    vertex 4678.874280135426 3736.069145484562 2.985107313434013
    vertex 4692.874280135425 3736.036495066244 2.4948169756422187
    vertex 4692.874280135422 3736.069145484471 2.9851073134875277
  endloop
endfacet
facet normal -7.309205383739552e-12 -0.9465933797238184 0.32242979617746076
  outer loop
    vertex 4692.874280135422 3736.069145484471 2.9851073134875277
    vertex 4678.874280135426 3736.279573152329 3.6028834606142466
    vertex 4678.874280135426 3736.069145484562 2.985107313434013
  endloop
endfacet
facet normal -7.309205383739552e-12 -0.9465933797238184 0.32242979617746076
  outer loop
    vertex 4678.874280135426 3736.279573152329 3.6028834606142466
    vertex 4692.874280135422 3736.069145484471 2.9851073134875277
    vertex 4692.874280135422 3736.279573152238 3.602883460667761
  endloop
endfacet
facet normal -7.46098345520356e-12 -0.8308880205101846 0.5564396619334995
  outer loop
    vertex 4692.874280135422 3736.279573152238 3.602883460667761
    vertex 4678.874280135426 3736.642722903691 4.145146708006435
    vertex 4678.874280135426 3736.279573152329 3.6028834606142466
  endloop
endfacet
facet normal -7.46098345520356e-12 -0.8308880205101846 0.5564396619334995
  outer loop
    vertex 4678.874280135426 3736.642722903691 4.145146708006435
    vertex 4692.874280135422 3736.279573152238 3.602883460667761
    vertex 4692.874280135422 3736.6427229036 4.145146708059954
  endloop
endfacet
facet normal -5.630354593681305e-13 0.9238795325114633 -0.3826834323646642
  outer loop
    vertex 4678.874280135426 3737.3614861822425 2.8053998297117295
    vertex 4692.874280135427 3737.4813666892496 3.0948169755800974
    vertex 4692.874280135427 3737.3614861822443 2.805399829703122
  endloop
endfacet
facet normal -5.630354593681305e-13 0.9238795325114633 -0.3826834323646642
  outer loop
    vertex 4692.874280135427 3737.4813666892496 3.0948169755800974
    vertex 4678.874280135426 3737.3614861822425 2.8053998297117295
    vertex 4678.874280135426 3737.4813666892483 3.0948169755887043
  endloop
endfacet
facet normal -6.556686794781912e-13 0.7933533402915262 -0.6087614290083415
  outer loop
    vertex 4678.874280135426 3737.4813666892483 3.0948169755887043
    vertex 4692.874280135427 3737.672069036367 3.3433451130039544
    vertex 4692.874280135427 3737.4813666892496 3.0948169755800974
  endloop
endfacet
facet normal -6.556686794781912e-13 0.7933533402915262 -0.6087614290083415
  outer loop
    vertex 4692.874280135427 3737.672069036367 3.3433451130039544
    vertex 4678.874280135426 3737.4813666892483 3.0948169755887043
    vertex 4678.874280135426 3737.6720690363654 3.3433451130125613
  endloop
endfacet
facet normal -7.036191626256113e-13 0.6087614290085339 -0.7933533402913786
  outer loop
    vertex 4692.874280135427 3737.9205971737906 3.534047460121423
    vertex 4678.874280135426 3737.6720690363654 3.3433451130125613
    vertex 4678.874280135426 3737.9205971737892 3.5340474601300302
  endloop
endfacet
facet normal -7.036191626256113e-13 0.6087614290085339 -0.7933533402913786
  outer loop
    vertex 4678.874280135426 3737.6720690363654 3.3433451130125613
    vertex 4692.874280135427 3737.9205971737906 3.534047460121423
    vertex 4692.874280135427 3737.672069036367 3.3433451130039544
  endloop
endfacet
facet normal -7.036191626255452e-13 0.3826834323648551 -0.9238795325113841
  outer loop
    vertex 4692.874280135427 3738.210014319668 3.653927967126979
    vertex 4678.874280135426 3737.9205971737892 3.5340474601300302
    vertex 4678.874280135426 3738.2100143196667 3.653927967135586
  endloop
endfacet
facet normal -7.036191626255452e-13 0.3826834323648551 -0.9238795325113841
  outer loop
    vertex 4678.874280135426 3737.9205971737892 3.5340474601300302
    vertex 4692.874280135427 3738.210014319668 3.653927967126979
    vertex 4692.874280135427 3737.9205971737906 3.534047460121423
  endloop
endfacet
facet normal -6.55668679478299e-13 0.13052619222019382 -0.9914448613737917
  outer loop
    vertex 4692.874280135427 3738.5205971737905 3.694816975580097
    vertex 4678.874280135426 3738.2100143196667 3.653927967135586
    vertex 4678.874280135426 3738.520597173789 3.694816975588704
  endloop
endfacet
facet normal -6.55668679478299e-13 0.13052619222019382 -0.9914448613737917
  outer loop
    vertex 4678.874280135426 3738.2100143196667 3.653927967135586
    vertex 4692.874280135427 3738.5205971737905 3.694816975580097
    vertex 4692.874280135427 3738.210014319668 3.653927967126979
  endloop
endfacet
facet normal -5.630354593681693e-13 -0.13052619222019604 -0.9914448613737914
  outer loop
    vertex 4692.874280135427 3738.8311800279134 3.653927967126978
    vertex 4678.874280135426 3738.520597173789 3.694816975588704
    vertex 4678.874280135426 3738.831180027912 3.6539279671355853
  endloop
endfacet
facet normal -5.630354593681693e-13 -0.13052619222019604 -0.9914448613737914
  outer loop
    vertex 4678.874280135426 3738.520597173789 3.694816975588704
    vertex 4692.874280135427 3738.8311800279134 3.653927967126978
    vertex 4692.874280135427 3738.5205971737905 3.694816975580097
  endloop
endfacet
facet normal -4.320323031624942e-13 -0.38268343236485314 -0.9238795325113849
  outer loop
    vertex 4692.874280135427 3739.1205971737904 3.534047460121423
    vertex 4678.874280135426 3738.831180027912 3.6539279671355853
    vertex 4678.874280135426 3739.120597173789 3.5340474601300302
  endloop
endfacet
facet normal -4.320323031624942e-13 -0.38268343236485314 -0.9238795325113849
  outer loop
    vertex 4678.874280135426 3738.831180027912 3.6539279671355853
    vertex 4692.874280135427 3739.1205971737904 3.534047460121423
    vertex 4692.874280135427 3738.8311800279134 3.653927967126978
  endloop
endfacet
facet normal -2.7158685946324515e-13 -0.6087614290085352 -0.7933533402913776
  outer loop
    vertex 4692.8742801354265 3739.3691253112147 3.3433451130039535
    vertex 4678.874280135426 3739.120597173789 3.5340474601300302
    vertex 4678.874280135426 3739.369125311213 3.343345113012561
  endloop
endfacet
facet normal -2.7158685946324515e-13 -0.6087614290085352 -0.7933533402913776
  outer loop
    vertex 4678.874280135426 3739.120597173789 3.5340474601300302
    vertex 4692.8742801354265 3739.3691253112147 3.3433451130039535
    vertex 4692.874280135427 3739.1205971737904 3.534047460121423
  endloop
endfacet
facet normal -9.263322010959302e-14 -0.7933533402915269 -0.6087614290083404
  outer loop
    vertex 4692.8742801354265 3739.3691253112147 3.3433451130039535
    vertex 4678.874280135426 3739.5598276583305 3.094816975588703
    vertex 4692.8742801354265 3739.559827658332 3.094816975580096
  endloop
endfacet
facet normal -9.263322010959302e-14 -0.7933533402915269 -0.6087614290083404
  outer loop
    vertex 4678.874280135426 3739.5598276583305 3.094816975588703
    vertex 4692.8742801354265 3739.3691253112147 3.3433451130039535
    vertex 4678.874280135426 3739.369125311213 3.343345113012561
  endloop
endfacet
facet normal 9.263322011041241e-14 -0.9238795325114629 -0.38268343236466495
  outer loop
    vertex 4692.8742801354265 3739.559827658332 3.094816975580096
    vertex 4678.874280135426 3739.679708165336 2.8053998297117286
    vertex 4692.8742801354265 3739.679708165337 2.8053998297031217
  endloop
endfacet
facet normal 9.263322011041241e-14 -0.9238795325114629 -0.38268343236466495
  outer loop
    vertex 4678.874280135426 3739.679708165336 2.8053998297117286
    vertex 4692.8742801354265 3739.559827658332 3.094816975580096
    vertex 4678.874280135426 3739.5598276583305 3.094816975588703
  endloop
endfacet
facet normal 2.7158685946305683e-13 -0.9914448613737741 -0.13052619222032794
  outer loop
    vertex 4692.8742801354265 3739.679708165337 2.8053998297031217
    vertex 4678.874280135425 3739.720597173789 2.494816975588704
    vertex 4692.874280135426 3739.7205971737903 2.494816975580097
  endloop
endfacet
facet normal 2.7158685946305683e-13 -0.9914448613737741 -0.13052619222032794
  outer loop
    vertex 4678.874280135425 3739.720597173789 2.494816975588704
    vertex 4692.8742801354265 3739.679708165337 2.8053998297031217
    vertex 4678.874280135426 3739.679708165336 2.8053998297117286
  endloop
endfacet
facet normal 4.3203230316263333e-13 -0.9914448613737743 0.13052619222032735
  outer loop
    vertex 4692.874280135426 3739.7205971737903 2.494816975580097
    vertex 4678.874280135425 3739.679708165336 2.184234121465678
    vertex 4692.874280135426 3739.679708165337 2.184234121457071
  endloop
endfacet
facet normal 4.3203230316263333e-13 -0.9914448613737743 0.13052619222032735
  outer loop
    vertex 4678.874280135425 3739.679708165336 2.184234121465678
    vertex 4692.874280135426 3739.7205971737903 2.494816975580097
    vertex 4678.874280135425 3739.720597173789 2.494816975588704
  endloop
endfacet
facet normal 5.630354593681309e-13 -0.9238795325114629 0.38268343236466495
  outer loop
    vertex 4692.874280135426 3739.679708165337 2.184234121457071
    vertex 4678.874280135425 3739.5598276583305 1.8948169755887039
    vertex 4692.874280135426 3739.559827658332 1.8948169755800965
  endloop
endfacet
facet normal 5.630354593681309e-13 -0.9238795325114629 0.38268343236466495
  outer loop
    vertex 4678.874280135425 3739.5598276583305 1.8948169755887039
    vertex 4692.874280135426 3739.679708165337 2.184234121457071
    vertex 4678.874280135425 3739.679708165336 2.184234121465678
  endloop
endfacet
facet normal 6.556686794781912e-13 -0.7933533402915262 0.6087614290083415
  outer loop
    vertex 4692.874280135426 3739.559827658332 1.8948169755800965
    vertex 4678.874280135425 3739.369125311213 1.6462888381648468
    vertex 4692.874280135426 3739.3691253112147 1.6462888381562397
  endloop
endfacet
facet normal 6.556686794781912e-13 -0.7933533402915262 0.6087614290083415
  outer loop
    vertex 4678.874280135425 3739.369125311213 1.6462888381648468
    vertex 4692.874280135426 3739.559827658332 1.8948169755800965
    vertex 4678.874280135425 3739.5598276583305 1.8948169755887039
  endloop
endfacet
facet normal 7.036191626256111e-13 -0.6087614290085352 0.7933533402913776
  outer loop
    vertex 4692.874280135426 3739.1205971737904 1.4555864910387701
    vertex 4678.874280135425 3739.369125311213 1.6462888381648468
    vertex 4678.874280135425 3739.120597173789 1.4555864910473773
  endloop
endfacet
facet normal 7.036191626256111e-13 -0.6087614290085352 0.7933533402913776
  outer loop
    vertex 4678.874280135425 3739.369125311213 1.6462888381648468
    vertex 4692.874280135426 3739.1205971737904 1.4555864910387701
    vertex 4692.874280135426 3739.3691253112147 1.6462888381562397
  endloop
endfacet
facet normal 7.03619162625545e-13 -0.38268343236485314 0.9238795325113849
  outer loop
    vertex 4692.874280135426 3738.8311800279134 1.335705984033215
    vertex 4678.874280135425 3739.120597173789 1.4555864910473773
    vertex 4678.874280135425 3738.831180027912 1.3357059840418222
  endloop
endfacet
facet normal 7.03619162625545e-13 -0.38268343236485314 0.9238795325113849
  outer loop
    vertex 4678.874280135425 3739.120597173789 1.4555864910473773
    vertex 4692.874280135426 3738.8311800279134 1.335705984033215
    vertex 4692.874280135426 3739.1205971737904 1.4555864910387701
  endloop
endfacet
facet normal 6.55668679478299e-13 -0.13052619222019382 0.9914448613737917
  outer loop
    vertex 4692.874280135426 3738.5205971737905 1.2948169755800971
    vertex 4678.874280135425 3738.831180027912 1.3357059840418222
    vertex 4678.874280135425 3738.520597173789 1.2948169755887042
  endloop
endfacet
facet normal 6.55668679478299e-13 -0.13052619222019382 0.9914448613737917
  outer loop
    vertex 4678.874280135425 3738.831180027912 1.3357059840418222
    vertex 4692.874280135426 3738.5205971737905 1.2948169755800971
    vertex 4692.874280135426 3738.8311800279134 1.335705984033215
  endloop
endfacet
facet normal 5.630354593681704e-13 0.13052619222019382 0.9914448613737917
  outer loop
    vertex 4692.874280135426 3738.210014319668 1.335705984033215
    vertex 4678.874280135425 3738.520597173789 1.2948169755887042
    vertex 4678.874280135425 3738.2100143196667 1.3357059840418222
  endloop
endfacet
facet normal 5.630354593681704e-13 0.13052619222019382 0.9914448613737917
  outer loop
    vertex 4678.874280135425 3738.520597173789 1.2948169755887042
    vertex 4692.874280135426 3738.210014319668 1.335705984033215
    vertex 4692.874280135426 3738.5205971737905 1.2948169755800971
  endloop
endfacet
facet normal 4.3203230316249303e-13 0.3826834323648551 0.9238795325113841
  outer loop
    vertex 4692.874280135426 3737.9205971737906 1.4555864910387708
    vertex 4678.874280135425 3738.2100143196667 1.3357059840418222
    vertex 4678.874280135425 3737.9205971737892 1.455586491047378
  endloop
endfacet
facet normal 4.3203230316249303e-13 0.3826834323648551 0.9238795325113841
  outer loop
    vertex 4678.874280135425 3738.2100143196667 1.3357059840418222
    vertex 4692.874280135426 3737.9205971737906 1.4555864910387708
    vertex 4692.874280135426 3738.210014319668 1.335705984033215
  endloop
endfacet
facet normal 2.715868594632463e-13 0.6087614290085339 0.7933533402913786
  outer loop
    vertex 4678.874280135426 3737.6720690363654 1.6462888381648468
    vertex 4692.874280135426 3737.9205971737906 1.4555864910387708
    vertex 4678.874280135425 3737.9205971737892 1.455586491047378
  endloop
endfacet
facet normal 2.715868594632463e-13 0.6087614290085339 0.7933533402913786
  outer loop
    vertex 4692.874280135426 3737.9205971737906 1.4555864910387708
    vertex 4678.874280135426 3737.6720690363654 1.6462888381648468
    vertex 4692.8742801354265 3737.672069036367 1.6462888381562397
  endloop
endfacet
facet normal 9.263322010959302e-14 0.7933533402915269 0.6087614290083404
  outer loop
    vertex 4678.874280135426 3737.6720690363654 1.6462888381648468
    vertex 4692.8742801354265 3737.4813666892496 1.8948169755800974
    vertex 4692.8742801354265 3737.672069036367 1.6462888381562397
  endloop
endfacet
facet normal 9.263322010959302e-14 0.7933533402915269 0.6087614290083404
  outer loop
    vertex 4692.8742801354265 3737.4813666892496 1.8948169755800974
    vertex 4678.874280135426 3737.6720690363654 1.6462888381648468
    vertex 4678.874280135426 3737.4813666892483 1.8948169755887045
  endloop
endfacet
facet normal -9.263322011041299e-14 0.9238795325114633 0.3826834323646642
  outer loop
    vertex 4678.874280135426 3737.4813666892483 1.8948169755887045
    vertex 4692.8742801354265 3737.3614861822443 2.1842341214570724
    vertex 4692.8742801354265 3737.4813666892496 1.8948169755800974
  endloop
endfacet
facet normal -9.263322011041299e-14 0.9238795325114633 0.3826834323646642
  outer loop
    vertex 4692.8742801354265 3737.3614861822443 2.1842341214570724
    vertex 4678.874280135426 3737.4813666892483 1.8948169755887045
    vertex 4678.874280135426 3737.3614861822425 2.1842341214656797
  endloop
endfacet
facet normal -2.7158685946305683e-13 0.9914448613737741 0.13052619222032794
  outer loop
    vertex 4678.874280135426 3737.3614861822425 2.1842341214656797
    vertex 4692.874280135427 3737.3205971737907 2.494816975580097
    vertex 4692.8742801354265 3737.3614861822443 2.1842341214570724
  endloop
endfacet
facet normal -2.7158685946305683e-13 0.9914448613737741 0.13052619222032794
  outer loop
    vertex 4692.874280135427 3737.3205971737907 2.494816975580097
    vertex 4678.874280135426 3737.3614861822425 2.1842341214656797
    vertex 4678.874280135426 3737.3205971737893 2.494816975588704
  endloop
endfacet
facet normal -4.320323031626334e-13 0.9914448613737741 -0.13052619222032763
  outer loop
    vertex 4678.874280135426 3737.3205971737893 2.494816975588704
    vertex 4692.874280135427 3737.3614861822443 2.805399829703122
    vertex 4692.874280135427 3737.3205971737907 2.494816975580097
  endloop
endfacet
facet normal -4.320323031626334e-13 0.9914448613737741 -0.13052619222032763
  outer loop
    vertex 4692.874280135427 3737.3614861822443 2.805399829703122
    vertex 4678.874280135426 3737.3205971737893 2.494816975588704
    vertex 4678.874280135426 3737.3614861822425 2.8053998297117295
  endloop
endfacet
facet normal -6.982654867530017e-12 -0.12433782917523428 0.9922399428747013
  outer loop
    vertex 4692.874280135423 3729.0563015117405 1.6201272194103697
    vertex 4678.874280135427 3736.0364950663347 2.494816975588704
    vertex 4678.874280135425 3729.0563015117937 1.6201272192849334
  endloop
endfacet
facet normal -6.982654867530017e-12 -0.12433782917523428 0.9922399428747013
  outer loop
    vertex 4678.874280135427 3736.0364950663347 2.494816975588704
    vertex 4692.874280135423 3729.0563015117405 1.6201272194103697
    vertex 4692.874280135425 3736.036495066244 2.4948169756422187
  endloop
endfacet
facet normal -1.0 -4.112533998181682e-13 -2.315528584496519e-13
  outer loop
    vertex 4678.874280135429 3728.512818398203 1.2030979588514887
    vertex 4678.874280135429 3728.512818398203 0.9118462361015106
    vertex 4678.874280135429 3728.49364638984 1.0574720974765
  endloop
endfacet
facet normal -1.0 -4.112533998181682e-13 -2.315528584496519e-13
  outer loop
    vertex 4678.874280135429 3728.512818398203 0.9118462361015106
    vertex 4678.874280135429 3728.512818398203 1.2030979588514887
    vertex 4678.874280135429 3728.5690278826064 1.3387996584318869
  endloop
endfacet
facet normal -1.0 -4.112533998181682e-13 -2.315528584496519e-13
  outer loop
    vertex 4678.874280135429 3728.512818398203 0.9118462361015106
    vertex 4678.874280135429 3728.5690278826064 1.3387996584318869
    vertex 4678.874280135429 3728.5690278826064 0.7761445365211126
  endloop
endfacet
facet normal -1.0 -4.112533998181682e-13 -2.315528584496519e-13
  outer loop
    vertex 4678.874280135429 3728.5690278826064 0.7761445365211126
    vertex 4678.874280135429 3728.5690278826064 1.3387996584318869
    vertex 4678.874280135429 3728.6584442595777 1.4553293496489523
  endloop
endfacet
facet normal -1.0 -4.112533998181682e-13 -2.315528584496519e-13
  outer loop
    vertex 4678.874280135429 3728.5690278826064 0.7761445365211126
    vertex 4678.874280135429 3728.6584442595777 1.4553293496489523
    vertex 4678.874280135429 3728.6584442595777 0.6596148453040478
  endloop
endfacet
facet normal -1.0 -4.112533998181682e-13 -2.315528584496519e-13
  outer loop
    vertex 4678.874280135429 3728.6584442595777 0.6596148453040478
    vertex 4678.874280135429 3728.6584442595777 1.4553293496489523
    vertex 4678.874280135429 3728.774973950795 1.5447457266206606
  endloop
endfacet
facet normal -1.0 -4.112533998181682e-13 -2.315528584496519e-13
  outer loop
    vertex 4678.874280135429 3728.6584442595777 0.6596148453040478
    vertex 4678.874280135429 3728.774973950795 1.5447457266206606
    vertex 4678.874280135429 3728.774973950795 0.5701984683323394
  endloop
endfacet
facet normal -1.0 -4.112533998181682e-13 -2.315528584496519e-13
  outer loop
    vertex 4678.874280135429 3728.774973950795 0.5701984683323394
    vertex 4678.874280135429 3728.774973950795 1.5447457266206606
    vertex 4678.874280135429 3728.910675650375 1.6009552110239411
  endloop
endfacet
facet normal -1.0 -4.112533998181682e-13 -2.315528584496519e-13
  outer loop
    vertex 4678.874280135429 3728.774973950795 0.5701984683323394
    vertex 4678.874280135429 3728.910675650375 1.6009552110239411
    vertex 4678.874280135429 3728.910675650375 0.5139889839290583
  endloop
endfacet
facet normal -1.0 -4.112533998181682e-13 -2.315528584496519e-13
  outer loop
    vertex 4678.874280135429 3728.910675650375 0.5139889839290583
    vertex 4678.874280135429 3728.910675650375 1.6009552110239411
    vertex 4678.874280135425 3729.0563015117937 1.6201272192849334
  endloop
endfacet
facet normal -1.0 -4.112533998181682e-13 -2.315528584496519e-13
  outer loop
    vertex 4678.874280135429 3728.910675650375 0.5139889839290583
    vertex 4678.874280135425 3729.0563015117937 1.6201272192849334
    vertex 4678.874280135431 3729.0563015117937 0.49481697546338077
  endloop
endfacet
facet normal -1.0 -4.112533998181682e-13 -2.315528584496519e-13
  outer loop
    vertex 4678.874280135431 3729.0563015117937 0.49481697546338077
    vertex 4678.874280135425 3729.0563015117937 1.6201272192849334
    vertex 4678.874280135427 3736.0364950663347 2.494816975588704
  endloop
endfacet
facet normal -1.0 -4.112533998181682e-13 -2.315528584496519e-13
  outer loop
    vertex 4678.874280135431 3729.0563015117937 0.49481697546338077
    vertex 4678.874280135427 3736.0364950663347 2.494816975588704
    vertex 4678.874280135426 3736.0257801982 2.333918689972716
  endloop
endfacet
facet normal -1.0 -4.112533998181682e-13 -2.315528584496519e-13
  outer loop
    vertex 4678.874280135431 3729.0563015117937 0.49481697546338077
    vertex 4678.874280135426 3736.8702674413717 0.6169427054902629
    vertex 4678.874280135425 3737.0526282846263 0.49481697558917526
  endloop
endfacet
facet normal -1.0 -4.112533998181682e-13 -2.315528584496519e-13
  outer loop
    vertex 4678.874280135426 3736.8702674413717 0.6169427054902629
    vertex 4678.874280135431 3729.0563015117937 0.49481697546338077
    vertex 4678.874280135426 3736.440471437945 1.1080664850255422
  endloop
endfacet
facet normal -1.0 -4.112533998181682e-13 -2.315528584496519e-13
  outer loop
    vertex 4678.874280135426 3736.440471437945 1.1080664850255422
    vertex 4678.874280135431 3729.0563015117937 0.49481697546338077
    vertex 4678.874280135426 3736.1524325658456 1.69369501877916
  endloop
endfacet
facet normal -1.0 -4.112533998181682e-13 -2.315528584496519e-13
  outer loop
    vertex 4678.874280135426 3736.1524325658456 1.69369501877916
    vertex 4678.874280135431 3729.0563015117937 0.49481697546338077
    vertex 4678.874280135426 3736.0257801982 2.333918689972716
  endloop
endfacet
facet normal 1.0 -4.1284645396601844e-14 -3.4525932014969617e-13
  outer loop
    vertex 4692.874280135426 3728.512818398193 0.9118462361246061
    vertex 4692.874280135426 3728.512818398193 1.2030979588745843
    vertex 4692.874280135426 3728.49364638983 1.0574720974995955
  endloop
endfacet
facet normal 1.0 -4.1284645396601844e-14 -3.4525932014969617e-13
  outer loop
    vertex 4692.874280135426 3728.512818398193 1.2030979588745843
    vertex 4692.874280135426 3728.512818398193 0.9118462361246061
    vertex 4692.874280135426 3728.569027882596 0.7761445365442081
  endloop
endfacet
facet normal 1.0 -4.1284645396601844e-14 -3.4525932014969617e-13
  outer loop
    vertex 4692.874280135426 3728.512818398193 1.2030979588745843
    vertex 4692.874280135426 3728.569027882596 0.7761445365442081
    vertex 4692.874280135426 3728.569027882596 1.3387996584549824
  endloop
endfacet
facet normal 1.0 -4.1284645396601844e-14 -3.4525932014969617e-13
  outer loop
    vertex 4692.874280135426 3728.569027882596 1.3387996584549824
    vertex 4692.874280135426 3728.569027882596 0.7761445365442081
    vertex 4692.874280135426 3728.6584442595677 0.6596148453271433
  endloop
endfacet
facet normal 1.0 -4.1284645396601844e-14 -3.4525932014969617e-13
  outer loop
    vertex 4692.874280135426 3728.569027882596 1.3387996584549824
    vertex 4692.874280135426 3728.6584442595677 0.6596148453271433
    vertex 4692.874280135426 3728.6584442595677 1.4553293496720479
  endloop
endfacet
facet normal 1.0 -4.1284645396601844e-14 -3.4525932014969617e-13
  outer loop
    vertex 4692.874280135426 3728.6584442595677 1.4553293496720479
    vertex 4692.874280135426 3728.6584442595677 0.6596148453271433
    vertex 4692.874280135426 3728.7749739507844 0.570198468355435
  endloop
endfacet
facet normal 1.0 -4.1284645396601844e-14 -3.4525932014969617e-13
  outer loop
    vertex 4692.874280135426 3728.6584442595677 1.4553293496720479
    vertex 4692.874280135426 3728.7749739507844 0.570198468355435
    vertex 4692.874280135426 3728.7749739507844 1.544745726643756
  endloop
endfacet
facet normal 1.0 -4.1284645396601844e-14 -3.4525932014969617e-13
  outer loop
    vertex 4692.874280135426 3728.7749739507844 1.544745726643756
    vertex 4692.874280135426 3728.7749739507844 0.570198468355435
    vertex 4692.874280135426 3728.910675650365 0.5139889839521539
  endloop
endfacet
facet normal 1.0 -4.1284645396601844e-14 -3.4525932014969617e-13
  outer loop
    vertex 4692.874280135426 3728.7749739507844 1.544745726643756
    vertex 4692.874280135426 3728.910675650365 0.5139889839521539
    vertex 4692.874280135426 3728.910675650365 1.6009552110470366
  endloop
endfacet
facet normal 1.0 -4.1284645396601844e-14 -3.4525932014969617e-13
  outer loop
    vertex 4692.874280135426 3728.910675650365 1.6009552110470366
    vertex 4692.874280135426 3728.910675650365 0.5139889839521539
    vertex 4692.874280135429 3729.0563015117405 0.4948169755888214
  endloop
endfacet
facet normal 1.0 -4.1284645396601844e-14 -3.4525932014969617e-13
  outer loop
    vertex 4692.874280135426 3728.910675650365 1.6009552110470366
    vertex 4692.874280135429 3729.0563015117405 0.4948169755888214
    vertex 4692.874280135423 3729.0563015117405 1.6201272194103697
  endloop
endfacet
facet normal 1.0 -4.1284645396601844e-14 -3.4525932014969617e-13
  outer loop
    vertex 4692.874280135423 3729.0563015117405 1.6201272194103697
    vertex 4692.874280135429 3729.0563015117405 0.4948169755888214
    vertex 4692.8742801354265 3737.0526282846263 0.4948169755895898
  endloop
endfacet
facet normal 1.0 -4.1284645396601844e-14 -3.4525932014969617e-13
  outer loop
    vertex 4692.874280135423 3729.0563015117405 1.6201272194103697
    vertex 4692.8742801354265 3737.0526282846263 0.4948169755895898
    vertex 4692.874280135425 3736.036495066244 2.4948169756422187
  endloop
endfacet
facet normal 1.0 -4.1284645396601844e-14 -3.4525932014969617e-13
  outer loop
    vertex 4692.874280135425 3736.036495066244 2.4948169756422187
    vertex 4692.8742801354265 3737.0526282846263 0.4948169755895898
    vertex 4692.874280135422 3736.069145484471 2.9851073134875277
  endloop
endfacet
facet normal 1.0 -4.1284645396601844e-14 -3.4525932014969617e-13
  outer loop
    vertex 4692.874280135422 3736.069145484471 2.9851073134875277
    vertex 4692.8742801354265 3737.0526282846263 0.4948169755895898
    vertex 4692.874280135422 3736.279573152238 3.602883460667761
  endloop
endfacet
facet normal 1.0 -4.1284645396601844e-14 -3.4525932014969617e-13
  outer loop
    vertex 4692.874280135422 3736.279573152238 3.602883460667761
    vertex 4692.8742801354265 3737.0526282846263 0.4948169755895898
    vertex 4692.874280135422 3736.6427229036 4.145146708059954
  endloop
endfacet
facet normal 1.0 -4.1284645396601844e-14 -3.4525932014969617e-13
  outer loop
    vertex 4692.874280135422 3736.6427229036 4.145146708059954
    vertex 4692.8742801354265 3737.0526282846263 0.4948169755895898
    vertex 4692.874280135422 3737.1338466831353 4.574942711486709
  endloop
endfacet
facet normal 1.0 -4.1284645396601844e-14 -3.4525932014969617e-13
  outer loop
    vertex 4692.874280135422 3737.1338466831353 4.574942711486709
    vertex 4692.8742801354265 3737.0526282846263 0.4948169755895898
    vertex 4692.874280135427 3737.4125306887636 0.25379295412864517
  endloop
endfacet
facet normal 1.0 -4.1284645396601844e-14 -3.4525932014969617e-13
  outer loop
    vertex 4692.874280135422 3737.1338466831353 4.574942711486709
    vertex 4692.874280135427 3737.4125306887636 0.25379295412864517
    vertex 4692.874280135427 3737.3205971737907 2.494816975580097
  endloop
endfacet
facet normal 1.0 -4.1284645396601844e-14 -3.4525932014969617e-13
  outer loop
    vertex 4692.874280135427 3737.3205971737907 2.494816975580097
    vertex 4692.874280135427 3737.4125306887636 0.25379295412864517
    vertex 4692.8742801354265 3737.3614861822443 2.1842341214570724
  endloop
endfacet
facet normal 1.0 -4.1284645396601844e-14 -3.4525932014969617e-13
  outer loop
    vertex 4692.8742801354265 3737.3614861822443 2.1842341214570724
    vertex 4692.874280135427 3737.4125306887636 0.25379295412864517
    vertex 4692.8742801354265 3737.4813666892496 1.8948169755800974
  endloop
endfacet
facet normal 1.0 -4.1284645396601844e-14 -3.4525932014969617e-13
  outer loop
    vertex 4692.8742801354265 3737.4813666892496 1.8948169755800974
    vertex 4692.874280135427 3737.4125306887636 0.25379295412864517
    vertex 4692.874280135427 3738.0303068359435 0.043365286361842545
  endloop
endfacet
facet normal 1.0 -4.1284645396601844e-14 -3.4525932014969617e-13
  outer loop
    vertex 4692.8742801354265 3737.4813666892496 1.8948169755800974
    vertex 4692.874280135427 3738.0303068359435 0.043365286361842545
    vertex 4692.8742801354265 3737.672069036367 1.6462888381562397
  endloop
endfacet
facet normal 1.0 -4.1284645396601844e-14 -3.4525932014969617e-13
  outer loop
    vertex 4692.8742801354265 3737.672069036367 1.6462888381562397
    vertex 4692.874280135427 3738.0303068359435 0.043365286361842545
    vertex 4692.874280135426 3737.9205971737906 1.4555864910387708
  endloop
endfacet
facet normal 1.0 -4.1284645396601844e-14 -3.4525932014969617e-13
  outer loop
    vertex 4692.874280135426 3737.9205971737906 1.4555864910387708
    vertex 4692.874280135427 3738.0303068359435 0.043365286361842545
    vertex 4692.874280135426 3738.210014319668 1.335705984033215
  endloop
endfacet
facet normal 1.0 -4.1284645396601844e-14 -3.4525932014969617e-13
  outer loop
    vertex 4692.874280135426 3738.210014319668 1.335705984033215
    vertex 4692.874280135427 3738.0303068359435 0.043365286361842545
    vertex 4692.874280135427 3738.681495459405 4.145350729345409e-13
  endloop
endfacet
facet normal 1.0 -4.1284645396601844e-14 -3.4525932014969617e-13
  outer loop
    vertex 4692.874280135426 3738.210014319668 1.335705984033215
    vertex 4692.874280135427 3738.681495459405 4.145350729345409e-13
    vertex 4692.874280135426 3738.5205971737905 1.2948169755800971
  endloop
endfacet
facet normal 1.0 -4.1284645396601844e-14 -3.4525932014969617e-13
  outer loop
    vertex 4692.874280135426 3738.5205971737905 1.2948169755800971
    vertex 4692.874280135427 3738.681495459405 4.145350729345409e-13
    vertex 4692.874280135426 3738.8311800279134 1.335705984033215
  endloop
endfacet
facet normal 1.0 -4.1284645396601844e-14 -3.4525932014969617e-13
  outer loop
    vertex 4692.874280135426 3738.8311800279134 1.335705984033215
    vertex 4692.874280135427 3738.681495459405 4.145350729345409e-13
    vertex 4692.874280135427 3739.321719130599 0.12665236764536783
  endloop
endfacet
facet normal 1.0 -4.1284645396601844e-14 -3.4525932014969617e-13
  outer loop
    vertex 4692.874280135426 3738.8311800279134 1.335705984033215
    vertex 4692.874280135427 3739.321719130599 0.12665236764536783
    vertex 4692.874280135426 3739.1205971737904 1.4555864910387701
  endloop
endfacet
facet normal 1.0 -4.1284645396601844e-14 -3.4525932014969617e-13
  outer loop
    vertex 4692.874280135426 3739.1205971737904 1.4555864910387701
    vertex 4692.874280135427 3739.321719130599 0.12665236764536783
    vertex 4692.874280135426 3739.3691253112147 1.6462888381562397
  endloop
endfacet
facet normal 1.0 -4.1284645396601844e-14 -3.4525932014969617e-13
  outer loop
    vertex 4692.874280135426 3739.3691253112147 1.6462888381562397
    vertex 4692.874280135427 3739.321719130599 0.12665236764536783
    vertex 4692.874280135427 3739.9073476643525 0.4146912397446332
  endloop
endfacet
facet normal 1.0 -4.1284645396601844e-14 -3.4525932014969617e-13
  outer loop
    vertex 4692.874280135426 3739.3691253112147 1.6462888381562397
    vertex 4692.874280135427 3739.9073476643525 0.4146912397446332
    vertex 4692.874280135426 3739.559827658332 1.8948169755800965
  endloop
endfacet
facet normal 1.0 -4.1284645396601844e-14 -3.4525932014969617e-13
  outer loop
    vertex 4692.874280135426 3739.559827658332 1.8948169755800965
    vertex 4692.874280135427 3739.9073476643525 0.4146912397446332
    vertex 4692.874280135426 3739.679708165337 2.184234121457071
  endloop
endfacet
facet normal 1.0 -4.1284645396601844e-14 -3.4525932014969617e-13
  outer loop
    vertex 4692.874280135426 3739.679708165337 2.184234121457071
    vertex 4692.874280135427 3739.9073476643525 0.4146912397446332
    vertex 4692.874280135426 3739.7205971737903 2.494816975580097
  endloop
endfacet
facet normal 1.0 -4.1284645396601844e-14 -3.4525932014969617e-13
  outer loop
    vertex 4692.874280135429 3734.797733223248 8.140540991633847
    vertex 4692.874280135429 3734.764418390735 8.657105909495652
    vertex 4692.874280135429 3734.7470722761905 8.396630460111203
  endloop
endfacet
facet normal 1.0 -4.1284645396601844e-14 -3.4525932014969617e-13
  outer loop
    vertex 4692.874280135429 3734.764418390735 8.657105909495652
    vertex 4692.874280135429 3734.797733223248 8.140540991633847
    vertex 4692.874280135429 3734.8485894578416 8.904216368367672
  endloop
endfacet
facet normal 1.0 -4.1284645396601844e-14 -3.4525932014969617e-13
  outer loop
    vertex 4692.874280135429 3734.8485894578416 8.904216368367672
    vertex 4692.874280135429 3734.797733223248 8.140540991633847
    vertex 4692.874280135429 3734.912948772088 7.906289578132492
  endloop
endfacet
facet normal 1.0 -4.1284645396601844e-14 -3.4525932014969617e-13
  outer loop
    vertex 4692.874280135429 3734.8485894578416 8.904216368367672
    vertex 4692.874280135429 3734.912948772088 7.906289578132492
    vertex 4692.874280135429 3734.9938493583863 9.121121667324479
  endloop
endfacet
facet normal 1.0 -4.1284645396601844e-14 -3.4525932014969617e-13
  outer loop
    vertex 4692.874280135429 3734.9938493583863 9.121121667324479
    vertex 4692.874280135429 3734.912948772088 7.906289578132492
    vertex 4692.874280135422 3737.1338466831353 4.574942711486709
  endloop
endfacet
facet normal 1.0 -4.1284645396601844e-14 -3.4525932014969617e-13
  outer loop
    vertex 4692.874280135429 3734.9938493583863 9.121121667324479
    vertex 4692.874280135422 3737.1338466831353 4.574942711486709
    vertex 4692.874280135429 3735.190298870201 9.29304006869512
  endloop
endfacet
facet normal 1.0 -4.1284645396601844e-14 -3.4525932014969617e-13
  outer loop
    vertex 4692.874280135429 3735.190298870201 9.29304006869512
    vertex 4692.874280135422 3737.1338466831353 4.574942711486709
    vertex 4692.874280135429 3735.4245502837016 9.408255617534781
  endloop
endfacet
facet normal 1.0 -4.1284645396601844e-14 -3.4525932014969617e-13
  outer loop
    vertex 4692.874280135429 3735.4245502837016 9.408255617534781
    vertex 4692.874280135422 3737.1338466831353 4.574942711486709
    vertex 4692.874280135429 3735.680639752179 9.45891656459273
  endloop
endfacet
facet normal 1.0 -4.1284645396601844e-14 -3.4525932014969617e-13
  outer loop
    vertex 4692.874280135429 3735.680639752179 9.45891656459273
    vertex 4692.874280135422 3737.1338466831353 4.574942711486709
    vertex 4692.874280135429 3735.941115201564 9.441570450048147
  endloop
endfacet
facet normal 1.0 -4.1284645396601844e-14 -3.4525932014969617e-13
  outer loop
    vertex 4692.874280135429 3735.941115201564 9.441570450048147
    vertex 4692.874280135422 3737.1338466831353 4.574942711486709
    vertex 4692.874280135429 3736.188225660436 9.35739938294143
  endloop
endfacet
facet normal 1.0 -4.1284645396601844e-14 -3.4525932014969617e-13
  outer loop
    vertex 4692.874280135429 3736.188225660436 9.35739938294143
    vertex 4692.874280135422 3737.1338466831353 4.574942711486709
    vertex 4692.874280135429 3736.4051309593924 9.212139482396642
  endloop
endfacet
facet normal 1.0 -4.1284645396601844e-14 -3.4525932014969617e-13
  outer loop
    vertex 4692.874280135429 3736.4051309593924 9.212139482396642
    vertex 4692.874280135422 3737.1338466831353 4.574942711486709
    vertex 4692.874280135429 3736.5770493607633 9.015689970582534
  endloop
endfacet
facet normal 1.0 -4.1284645396601844e-14 -3.4525932014969617e-13
  outer loop
    vertex 4692.874280135429 3736.5770493607633 9.015689970582534
    vertex 4692.874280135422 3737.1338466831353 4.574942711486709
    vertex 4692.8742801354265 3739.371998210176 4.823266696471486
  endloop
endfacet
facet normal 1.0 -4.1284645396601844e-14 -3.4525932014969617e-13
  outer loop
    vertex 4692.8742801354265 3739.371998210176 4.823266696471486
    vertex 4692.874280135422 3737.1338466831353 4.574942711486709
    vertex 4692.874280135427 3737.672069036367 3.3433451130039544
  endloop
endfacet
facet normal 1.0 -4.1284645396601844e-14 -3.4525932014969617e-13
  outer loop
    vertex 4692.874280135427 3737.672069036367 3.3433451130039544
    vertex 4692.874280135422 3737.1338466831353 4.574942711486709
    vertex 4692.874280135427 3737.4813666892496 3.0948169755800974
  endloop
endfacet
facet normal 1.0 -4.1284645396601844e-14 -3.4525932014969617e-13
  outer loop
    vertex 4692.874280135427 3737.4813666892496 3.0948169755800974
    vertex 4692.874280135422 3737.1338466831353 4.574942711486709
    vertex 4692.874280135427 3737.3614861822443 2.805399829703122
  endloop
endfacet
facet normal 1.0 -4.1284645396601844e-14 -3.4525932014969617e-13
  outer loop
    vertex 4692.874280135427 3737.3614861822443 2.805399829703122
    vertex 4692.874280135422 3737.1338466831353 4.574942711486709
    vertex 4692.874280135427 3737.3205971737907 2.494816975580097
  endloop
endfacet
facet normal 1.0 -4.1284645396601844e-14 -3.4525932014969617e-13
  outer loop
    vertex 4692.8742801354265 3739.371998210176 4.823266696471486
    vertex 4692.874280135427 3737.672069036367 3.3433451130039544
    vertex 4692.874280135427 3737.9205971737906 3.534047460121423
  endloop
endfacet
facet normal 1.0 -4.1284645396601844e-14 -3.4525932014969617e-13
  outer loop
    vertex 4692.8742801354265 3739.371998210176 4.823266696471486
    vertex 4692.874280135427 3737.9205971737906 3.534047460121423
    vertex 4692.874280135427 3738.210014319668 3.653927967126979
  endloop
endfacet
facet normal 1.0 -4.1284645396601844e-14 -3.4525932014969617e-13
  outer loop
    vertex 4692.8742801354265 3739.371998210176 4.823266696471486
    vertex 4692.874280135427 3738.210014319668 3.653927967126979
    vertex 4692.874280135427 3738.5205971737905 3.694816975580097
  endloop
endfacet
facet normal 1.0 -4.1284645396601844e-14 -3.4525932014969617e-13
  outer loop
    vertex 4692.8742801354265 3739.371998210176 4.823266696471486
    vertex 4692.874280135427 3738.5205971737905 3.694816975580097
    vertex 4692.874280135427 3738.8311800279134 3.653927967126978
  endloop
endfacet
facet normal 1.0 -4.1284645396601844e-14 -3.4525932014969617e-13
  outer loop
    vertex 4692.8742801354265 3739.371998210176 4.823266696471486
    vertex 4692.874280135427 3738.8311800279134 3.653927967126978
    vertex 4692.874280135427 3739.1205971737904 3.534047460121423
  endloop
endfacet
facet normal 1.0 -4.1284645396601844e-14 -3.4525932014969617e-13
  outer loop
    vertex 4692.8742801354265 3739.371998210176 4.823266696471486
    vertex 4692.874280135427 3739.1205971737904 3.534047460121423
    vertex 4692.8742801354265 3739.3691253112147 3.3433451130039535
  endloop
endfacet
facet normal 1.0 -4.1284645396601844e-14 -3.4525932014969617e-13
  outer loop
    vertex 4692.8742801354265 3739.371998210176 4.823266696471486
    vertex 4692.8742801354265 3739.3691253112147 3.3433451130039535
    vertex 4692.8742801354265 3739.559827658332 3.094816975580096
  endloop
endfacet
facet normal 1.0 -4.1284645396601844e-14 -3.4525932014969617e-13
  outer loop
    vertex 4692.8742801354265 3739.371998210176 4.823266696471486
    vertex 4692.8742801354265 3739.559827658332 3.094816975580096
    vertex 4692.874280135427 3739.6286636588147 4.735840997049601
  endloop
endfacet
facet normal 1.0 -4.1284645396601844e-14 -3.4525932014969617e-13
  outer loop
    vertex 4692.874280135427 3739.6286636588147 4.735840997049601
    vertex 4692.8742801354265 3739.559827658332 3.094816975580096
    vertex 4692.8742801354265 3739.679708165337 2.8053998297031217
  endloop
endfacet
facet normal 1.0 -4.1284645396601844e-14 -3.4525932014969617e-13
  outer loop
    vertex 4692.874280135427 3739.6286636588147 4.735840997049601
    vertex 4692.8742801354265 3739.679708165337 2.8053998297031217
    vertex 4692.874280135427 3740.1709269062067 4.372691245687569
  endloop
endfacet
facet normal 1.0 -4.1284645396601844e-14 -3.4525932014969617e-13
  outer loop
    vertex 4692.874280135427 3740.1709269062067 4.372691245687569
    vertex 4692.8742801354265 3739.679708165337 2.8053998297031217
    vertex 4692.874280135426 3739.7205971737903 2.494816975580097
  endloop
endfacet
facet normal 1.0 -4.1284645396601844e-14 -3.4525932014969617e-13
  outer loop
    vertex 4692.874280135427 3740.1709269062067 4.372691245687569
    vertex 4692.874280135426 3739.7205971737903 2.494816975580097
    vertex 4692.874280135427 3739.9073476643525 0.4146912397446332
  endloop
endfacet
facet normal 1.0 -4.1284645396601844e-14 -3.4525932014969617e-13
  outer loop
    vertex 4692.874280135427 3740.1709269062067 4.372691245687569
    vertex 4692.874280135427 3739.9073476643525 0.4146912397446332
    vertex 4692.874280135427 3740.398471443888 0.8444872431713975
  endloop
endfacet
facet normal 1.0 -4.1284645396601844e-14 -3.4525932014969617e-13
  outer loop
    vertex 4692.874280135427 3740.1709269062067 4.372691245687569
    vertex 4692.874280135427 3740.398471443888 0.8444872431713975
    vertex 4692.874280135427 3740.6007229096335 3.8815674661522905
  endloop
endfacet
facet normal 1.0 -4.1284645396601844e-14 -3.4525932014969617e-13
  outer loop
    vertex 4692.874280135427 3740.6007229096335 3.8815674661522905
    vertex 4692.874280135427 3740.398471443888 0.8444872431713975
    vertex 4692.874280135427 3740.7616211952495 1.3867504905635863
  endloop
endfacet
facet normal 1.0 -4.1284645396601844e-14 -3.4525932014969617e-13
  outer loop
    vertex 4692.874280135427 3740.6007229096335 3.8815674661522905
    vertex 4692.874280135427 3740.7616211952495 1.3867504905635863
    vertex 4692.874280135427 3740.8887617817327 3.2959389323986716
  endloop
endfacet
facet normal 1.0 -4.1284645396601844e-14 -3.4525932014969617e-13
  outer loop
    vertex 4692.874280135427 3740.8887617817327 3.2959389323986716
    vertex 4692.874280135427 3740.7616211952495 1.3867504905635863
    vertex 4692.874280135427 3740.9720488630164 2.0045266377438185
  endloop
endfacet
facet normal 1.0 -4.1284645396601844e-14 -3.4525932014969617e-13
  outer loop
    vertex 4692.874280135427 3740.8887617817327 3.2959389323986716
    vertex 4692.874280135427 3740.9720488630164 2.0045266377438185
    vertex 4692.874280135427 3741.015414149378 2.655715261205116
  endloop
endfacet
facet normal 4.963330433376758e-12 -0.13052619254342834 -0.9914448613312371
  outer loop
    vertex 4678.874280135431 3729.0563015117937 0.49481697546338077
    vertex 4692.874280135426 3728.910675650365 0.5139889839521539
    vertex 4678.874280135429 3728.910675650375 0.5139889839290583
  endloop
endfacet
facet normal 4.963330433376758e-12 -0.13052619254342834 -0.9914448613312371
  outer loop
    vertex 4692.874280135426 3728.910675650365 0.5139889839521539
    vertex 4678.874280135431 3729.0563015117937 0.49481697546338077
    vertex 4692.874280135429 3729.0563015117405 0.4948169755888214
  endloop
endfacet
facet normal 1.3403788559380238e-12 -0.38268343236448116 -0.9238795325115389
  outer loop
    vertex 4692.874280135426 3728.910675650365 0.5139889839521539
    vertex 4678.874280135429 3728.774973950795 0.5701984683323394
    vertex 4678.874280135429 3728.910675650375 0.5139889839290583
  endloop
endfacet
facet normal 1.3403788559380238e-12 -0.38268343236448116 -0.9238795325115389
  outer loop
    vertex 4678.874280135429 3728.774973950795 0.5701984683323394
    vertex 4692.874280135426 3728.910675650365 0.5139889839521539
    vertex 4692.874280135426 3728.7749739507844 0.570198468355435
  endloop
endfacet
facet normal 1.0165470661986857e-12 -0.6087614290089347 -0.7933533402910709
  outer loop
    vertex 4692.874280135426 3728.7749739507844 0.570198468355435
    vertex 4678.874280135429 3728.6584442595777 0.6596148453040478
    vertex 4678.874280135429 3728.774973950795 0.5701984683323394
  endloop
endfacet
facet normal 1.0165470661986857e-12 -0.6087614290089347 -0.7933533402910709
  outer loop
    vertex 4678.874280135429 3728.6584442595777 0.6596148453040478
    vertex 4692.874280135426 3728.7749739507844 0.570198468355435
    vertex 4692.874280135426 3728.6584442595677 0.6596148453271433
  endloop
endfacet
facet normal 6.234392738213518e-13 -0.7933533402917834 -0.6087614290080061
  outer loop
    vertex 4692.874280135426 3728.6584442595677 0.6596148453271433
    vertex 4678.874280135429 3728.5690278826064 0.7761445365211126
    vertex 4678.874280135429 3728.6584442595777 0.6596148453040478
  endloop
endfacet
facet normal 6.234392738213518e-13 -0.7933533402917834 -0.6087614290080061
  outer loop
    vertex 4678.874280135429 3728.5690278826064 0.7761445365211126
    vertex 4692.874280135426 3728.6584442595677 0.6596148453271433
    vertex 4692.874280135426 3728.569027882596 0.7761445365442081
  endloop
endfacet
facet normal 1.8784512521932455e-13 -0.9238795325109044 -0.3826834323660132
  outer loop
    vertex 4692.874280135426 3728.569027882596 0.7761445365442081
    vertex 4678.874280135429 3728.512818398203 0.9118462361015106
    vertex 4678.874280135429 3728.5690278826064 0.7761445365211126
  endloop
endfacet
facet normal 1.8784512521932455e-13 -0.9238795325109044 -0.3826834323660132
  outer loop
    vertex 4678.874280135429 3728.512818398203 0.9118462361015106
    vertex 4692.874280135426 3728.569027882596 0.7761445365442081
    vertex 4692.874280135426 3728.512818398193 0.9118462361246061
  endloop
endfacet
facet normal -2.605503582469906e-13 -0.991444861374164 -0.13052619221736672
  outer loop
    vertex 4692.874280135426 3728.512818398193 0.9118462361246061
    vertex 4678.874280135429 3728.49364638984 1.0574720974765
    vertex 4678.874280135429 3728.512818398203 0.9118462361015106
  endloop
endfacet
facet normal -2.605503582469906e-13 -0.991444861374164 -0.13052619221736672
  outer loop
    vertex 4678.874280135429 3728.49364638984 1.0574720974765
    vertex 4692.874280135426 3728.512818398193 0.9118462361246061
    vertex 4692.874280135426 3728.49364638983 1.0574720974995955
  endloop
endfacet
facet normal -6.911897653637494e-13 -0.9914448613741639 0.13052619221736733
  outer loop
    vertex 4692.874280135426 3728.49364638983 1.0574720974995955
    vertex 4678.874280135429 3728.512818398203 1.2030979588514887
    vertex 4678.874280135429 3728.49364638984 1.0574720974765
  endloop
endfacet
facet normal -6.911897653637494e-13 -0.9914448613741639 0.13052619221736733
  outer loop
    vertex 4678.874280135429 3728.512818398203 1.2030979588514887
    vertex 4692.874280135426 3728.49364638983 1.0574720974995955
    vertex 4692.874280135426 3728.512818398193 1.2030979588745843
  endloop
endfacet
facet normal -1.0747257322302282e-12 -0.9238795325109044 0.3826834323660132
  outer loop
    vertex 4692.874280135426 3728.512818398193 1.2030979588745843
    vertex 4678.874280135429 3728.5690278826064 1.3387996584318869
    vertex 4678.874280135429 3728.512818398203 1.2030979588514887
  endloop
endfacet
facet normal -1.0747257322302282e-12 -0.9238795325109044 0.3826834323660132
  outer loop
    vertex 4678.874280135429 3728.5690278826064 1.3387996584318869
    vertex 4692.874280135426 3728.512818398193 1.2030979588745843
    vertex 4692.874280135426 3728.569027882596 1.3387996584549824
  endloop
endfacet
facet normal -1.3850209165057e-12 -0.7933533402917852 0.6087614290080039
  outer loop
    vertex 4692.874280135426 3728.569027882596 1.3387996584549824
    vertex 4678.874280135429 3728.6584442595777 1.4553293496489523
    vertex 4678.874280135429 3728.5690278826064 1.3387996584318869
  endloop
endfacet
facet normal -1.3850209165057e-12 -0.7933533402917852 0.6087614290080039
  outer loop
    vertex 4678.874280135429 3728.6584442595777 1.4553293496489523
    vertex 4692.874280135426 3728.569027882596 1.3387996584549824
    vertex 4692.874280135426 3728.6584442595677 1.4553293496720479
  endloop
endfacet
facet normal -1.600929214179539e-12 -0.6087614290089347 0.7933533402910709
  outer loop
    vertex 4692.874280135426 3728.6584442595677 1.4553293496720479
    vertex 4678.874280135429 3728.774973950795 1.5447457266206606
    vertex 4678.874280135429 3728.6584442595777 1.4553293496489523
  endloop
endfacet
facet normal -1.600929214179539e-12 -0.6087614290089347 0.7933533402910709
  outer loop
    vertex 4678.874280135429 3728.774973950795 1.5447457266206606
    vertex 4692.874280135426 3728.6584442595677 1.4553293496720479
    vertex 4692.874280135426 3728.7749739507844 1.544745726643756
  endloop
endfacet
facet normal -1.7077368315671918e-12 -0.38268343236447705 0.9238795325115405
  outer loop
    vertex 4692.874280135426 3728.7749739507844 1.544745726643756
    vertex 4678.874280135429 3728.910675650375 1.6009552110239411
    vertex 4678.874280135429 3728.774973950795 1.5447457266206606
  endloop
endfacet
facet normal -1.7077368315671918e-12 -0.38268343236447705 0.9238795325115405
  outer loop
    vertex 4678.874280135429 3728.910675650375 1.6009552110239411
    vertex 4692.874280135426 3728.7749739507844 1.544745726643756
    vertex 4692.874280135426 3728.910675650365 1.6009552110470366
  endloop
endfacet
facet normal -5.5554731975602015e-12 -0.13052619185853642 0.9914448614214049
  outer loop
    vertex 4678.874280135429 3728.910675650375 1.6009552110239411
    vertex 4692.874280135423 3729.0563015117405 1.6201272194103697
    vertex 4678.874280135425 3729.0563015117937 1.6201272192849334
  endloop
endfacet
facet normal -5.5554731975602015e-12 -0.13052619185853642 0.9914448614214049
  outer loop
    vertex 4692.874280135423 3729.0563015117405 1.6201272194103697
    vertex 4678.874280135429 3728.910675650375 1.6009552110239411
    vertex 4692.874280135426 3728.910675650365 1.6009552110470366
  endloop
endfacet
endsolid nextion case3
